<svg width="13" height="22" viewBox="0 0 13 22" fill="none" xmlns="http://www.w3.org/2000/svg">
<g id="Footer">
<path id="Facebook" d="M12.5105 0.00457747L9.39235 0C5.88926 0 3.62541 2.12509 3.62541 5.41423V7.91055H0.490293C0.219381 7.91055 0 8.1115 0 8.35937V11.9763C0 12.2241 0.219631 12.4249 0.490293 12.4249H3.62541V21.5514C3.62541 21.7993 3.84479 22 4.1157 22H8.20614C8.47705 22 8.69643 21.799 8.69643 21.5514V12.4249H12.3621C12.633 12.4249 12.8524 12.2241 12.8524 11.9763L12.8539 8.35937C12.8539 8.24036 12.8021 8.12638 12.7103 8.04215C12.6185 7.95793 12.4934 7.91055 12.3634 7.91055H8.69643V5.79439C8.69643 4.77727 8.96134 4.26094 10.4095 4.26094L12.51 4.26025C12.7806 4.26025 13 4.0593 13 3.81166V0.453169C13 0.205757 12.7809 0.00503522 12.5105 0.00457747Z" fill="white"/>
</g>
</svg>
