<svg width="239" height="37" viewBox="0 0 239 37" fill="none" xmlns="http://www.w3.org/2000/svg">
<g id="3SC Logo long/Green">
<g id="Group">
<path id="Vector" d="M238.189 10.7354H222.533V27.5879H238.189V24.4996H225.679V20.7058H235.755V17.6175H225.679V13.8237H238.189V10.7354ZM216.76 24.3361C216.76 24.4308 216.691 24.4996 216.595 24.4996H206.163C206.068 24.4996 205.998 24.4308 205.998 24.3361V20.7058C205.998 20.6112 206.068 20.5682 206.163 20.5682H216.595C216.691 20.5682 216.76 20.6112 216.76 20.7058V24.3361ZM215.934 13.8237C216.004 13.8237 216.073 13.8925 216.073 13.9872V17.2906C216.073 17.3852 216.004 17.454 215.934 17.454H206.163C206.068 17.454 205.998 17.3852 205.998 17.2906V13.9872C205.998 13.8925 206.068 13.8237 206.163 13.8237H215.934ZM219.22 13.9872C219.22 12.1892 217.734 10.7354 215.934 10.7354H202.877V27.5879H216.595C218.421 27.5879 219.907 26.1341 219.907 24.3361V20.7058C219.907 19.8628 219.525 19.0455 218.986 18.4863C219.151 18.1336 219.22 17.7379 219.22 17.2906V13.9872ZM197.061 24.3361C197.061 24.4308 196.992 24.4996 196.922 24.4996H186.464C186.369 24.4996 186.299 24.4308 186.299 24.3361V10.7354H183.178V24.3361C183.178 26.1341 184.648 27.5879 186.464 27.5879H196.922C198.722 27.5879 200.208 26.1341 200.208 24.3361V10.7354H197.061V24.3361ZM180.762 13.8237V10.7354H167.07C165.253 10.7354 163.784 12.1892 163.784 13.9872V24.3361C163.784 26.1341 165.253 27.5879 167.07 27.5879H180.762V24.4996H167.07C166.974 24.4996 166.905 24.4308 166.905 24.3361V13.9872C166.905 13.8925 166.974 13.8237 167.07 13.8237H180.762ZM150.701 24.3361C150.701 24.4308 150.631 24.4996 150.535 24.4996H140.104C140.008 24.4996 139.938 24.4308 139.938 24.3361V13.9872C139.938 13.8925 140.008 13.8237 140.104 13.8237H150.535C150.631 13.8237 150.701 13.8925 150.701 13.9872V24.3361ZM136.818 10.7354V27.5879H150.535C152.352 27.5879 153.848 26.1341 153.848 24.3361V13.9872C153.848 12.1892 152.361 10.7354 150.535 10.7354H136.818ZM134.357 10.7354H118.701V27.5879H134.357V24.4996H121.848V20.7058H131.923V17.6175H121.848V13.8237H134.357V10.7354ZM112.859 24.3361C112.859 24.4308 112.79 24.4996 112.694 24.4996H102.262C102.166 24.4996 102.097 24.4308 102.097 24.3361V13.9872C102.097 13.8925 102.166 13.8237 102.262 13.8237H112.694C112.79 13.8237 112.859 13.8925 112.859 13.9872V24.3361ZM98.9761 10.7354V27.5879H112.694C114.519 27.5879 116.006 26.1341 116.006 24.3361V13.9872C116.006 12.1892 114.519 10.7354 112.694 10.7354H98.9761ZM93.7428 27.5879H96.8636V10.7354H93.7428V27.5879ZM91.1957 13.9872C91.1957 12.1892 89.7091 10.7354 87.9096 10.7354H77.4517C75.6348 10.7354 74.1657 12.1892 74.1657 13.9872V17.454C74.1657 19.2606 75.6348 20.7058 77.4517 20.7058H87.9096C87.9792 20.7058 88.0487 20.7746 88.0487 20.8693V24.3361C88.0487 24.4308 87.9792 24.4996 87.9096 24.4996H77.4517C77.3561 24.4996 77.2865 24.4308 77.2865 24.3361V23.0457H74.1657V24.3361C74.1657 26.1341 75.6348 27.5879 77.4517 27.5879H87.9096C89.7091 27.5879 91.1957 26.1341 91.1957 24.3361V20.8693C91.1957 19.0713 89.7091 17.6175 87.9096 17.6175H77.4517C77.3561 17.6175 77.2865 17.5487 77.2865 17.454V13.9872C77.2865 13.8925 77.3561 13.8237 77.4517 13.8237H87.9096C87.9792 13.8237 88.0487 13.8925 88.0487 13.9872V15.2776H91.1957V13.9872ZM63.5861 13.9613C63.5861 12.1806 62.1169 10.7354 60.3261 10.7354H50.6506C48.8511 10.7354 47.3906 12.1892 47.3906 13.9613V15.1743H50.4854V13.9613C50.4854 13.8667 50.5549 13.7979 50.6506 13.7979H60.3261C60.4217 13.7979 60.4913 13.8667 60.4913 13.9613V17.3336C60.4913 17.4024 60.4217 17.4712 60.3261 17.4712H50.3202V20.5424H61.0129C61.0824 20.5424 61.152 20.6112 61.152 20.7058V24.3533C61.152 24.448 61.0824 24.5168 61.0129 24.5168H50.6506C50.5549 24.5168 50.4854 24.448 50.4854 24.3533V23.3468H47.3906V24.3533C47.3906 26.1341 48.8598 27.5793 50.6506 27.5793H61.0129C62.8124 27.5793 64.2554 26.1255 64.2554 24.3533V20.7058C64.2554 19.8628 63.899 19.0713 63.36 18.5035C63.5252 18.1508 63.5947 17.7551 63.5947 17.3336V13.9613H63.5861Z" fill="white"/>
<g id="Clip path group">
<mask id="mask0_2986_3952" style="mask-type:luminance" maskUnits="userSpaceOnUse" x="47" y="10" width="192" height="18">
<g id="SVGID_2_">
<path id="Vector_2" d="M238.195 10.7354H222.538V27.5879H238.195V24.4996H225.685V20.7058H235.761V17.6175H225.685V13.8237H238.195V10.7354ZM216.766 24.3361C216.766 24.4308 216.697 24.4996 216.601 24.4996H206.169C206.073 24.4996 206.004 24.4308 206.004 24.3361V20.7058C206.004 20.6112 206.073 20.5682 206.169 20.5682H216.601C216.697 20.5682 216.766 20.6112 216.766 20.7058V24.3361ZM215.94 13.8237C216.01 13.8237 216.079 13.8925 216.079 13.9872V17.2906C216.079 17.3852 216.01 17.454 215.94 17.454H206.169C206.073 17.454 206.004 17.3852 206.004 17.2906V13.9872C206.004 13.8925 206.073 13.8237 206.169 13.8237H215.94ZM219.226 13.9872C219.226 12.1892 217.74 10.7354 215.94 10.7354H202.883V27.5879H216.601C218.426 27.5879 219.913 26.1341 219.913 24.3361V20.7058C219.913 19.8628 219.531 19.0455 218.992 18.4863C219.157 18.1336 219.226 17.7379 219.226 17.2906V13.9872ZM197.067 24.3361C197.067 24.4308 196.998 24.4996 196.928 24.4996H186.47C186.375 24.4996 186.305 24.4308 186.305 24.3361V10.7354H183.184V24.3361C183.184 26.1341 184.653 27.5879 186.47 27.5879H196.928C198.728 27.5879 200.214 26.1341 200.214 24.3361V10.7354H197.067V24.3361ZM180.768 13.8237V10.7354H167.076C165.259 10.7354 163.79 12.1892 163.79 13.9872V24.3361C163.79 26.1341 165.259 27.5879 167.076 27.5879H180.768V24.4996H167.076C166.98 24.4996 166.911 24.4308 166.911 24.3361V13.9872C166.911 13.8925 166.98 13.8237 167.076 13.8237H180.768ZM150.706 24.3361C150.706 24.4308 150.637 24.4996 150.541 24.4996H140.109C140.014 24.4996 139.944 24.4308 139.944 24.3361V13.9872C139.944 13.8925 140.014 13.8237 140.109 13.8237H150.541C150.637 13.8237 150.706 13.8925 150.706 13.9872V24.3361ZM136.823 10.7354V27.5879H150.541C152.358 27.5879 153.853 26.1341 153.853 24.3361V13.9872C153.853 12.1892 152.367 10.7354 150.541 10.7354H136.823ZM134.363 10.7354H118.707V27.5879H134.363V24.4996H121.854V20.7058H131.929V17.6175H121.854V13.8237H134.363V10.7354ZM112.865 24.3361C112.865 24.4308 112.795 24.4996 112.7 24.4996H102.268C102.172 24.4996 102.103 24.4308 102.103 24.3361V13.9872C102.103 13.8925 102.172 13.8237 102.268 13.8237H112.7C112.795 13.8237 112.865 13.8925 112.865 13.9872V24.3361ZM98.9819 10.7354V27.5879H112.7C114.525 27.5879 116.012 26.1341 116.012 24.3361V13.9872C116.012 12.1892 114.525 10.7354 112.7 10.7354H98.9819ZM93.7486 27.5879H96.8695V10.7354H93.7486V27.5879ZM91.2015 13.9872C91.2015 12.1892 89.715 10.7354 87.9155 10.7354H77.4576C75.6407 10.7354 74.1715 12.1892 74.1715 13.9872V17.454C74.1715 19.2606 75.6407 20.7058 77.4576 20.7058H87.9155C87.985 20.7058 88.0546 20.7746 88.0546 20.8693V24.3361C88.0546 24.4308 87.985 24.4996 87.9155 24.4996H77.4576C77.3619 24.4996 77.2924 24.4308 77.2924 24.3361V23.0457H74.1715V24.3361C74.1715 26.1341 75.6407 27.5879 77.4576 27.5879H87.9155C89.715 27.5879 91.2015 26.1341 91.2015 24.3361V20.8693C91.2015 19.0713 89.715 17.6175 87.9155 17.6175H77.4576C77.3619 17.6175 77.2924 17.5487 77.2924 17.454V13.9872C77.2924 13.8925 77.3619 13.8237 77.4576 13.8237H87.9155C87.985 13.8237 88.0546 13.8925 88.0546 13.9872V15.2776H91.2015V13.9872ZM63.5919 13.9613C63.5919 12.1806 62.1228 10.7354 60.332 10.7354H50.6564C48.8569 10.7354 47.3965 12.1892 47.3965 13.9613V15.1743H50.4913V13.9613C50.4913 13.8667 50.5608 13.7979 50.6564 13.7979H60.332C60.4276 13.7979 60.4971 13.8667 60.4971 13.9613V17.3336C60.4971 17.4024 60.4276 17.4712 60.332 17.4712H50.3261V20.5424H61.0187C61.0883 20.5424 61.1578 20.6112 61.1578 20.7058V24.3533C61.1578 24.448 61.0883 24.5168 61.0187 24.5168H50.6564C50.5608 24.5168 50.4913 24.448 50.4913 24.3533V23.3468H47.3965V24.3533C47.3965 26.1341 48.8656 27.5793 50.6564 27.5793H61.0187C62.8182 27.5793 64.2613 26.1255 64.2613 24.3533V20.7058C64.2613 19.8628 63.9049 19.0713 63.3659 18.5035C63.5311 18.1508 63.6006 17.7551 63.6006 17.3336V13.9613H63.5919Z" fill="white"/>
</g>
</mask>
<g mask="url(#mask0_2986_3952)">
<g id="Group_2">
<path id="Vector_3" d="M247.526 -12.6729H-7.19336V51.2449H247.526V-12.6729Z" fill="white"/>
<g id="Clip path group_2">
<mask id="mask1_2986_3952" style="mask-type:luminance" maskUnits="userSpaceOnUse" x="-8" y="-13" width="256" height="65">
<g id="SVGID_4_">
<path id="Vector_4" d="M247.526 -12.6729H-7.19336V51.2449H247.526V-12.6729Z" fill="white"/>
</g>
</mask>
<g mask="url(#mask1_2986_3952)">
<path id="Vector_5" d="M242.715 6.17432H42.8145V32.0253H242.715V6.17432Z" fill="white"/>
</g>
</g>
</g>
</g>
</g>
</g>
<g id="Page-1_16_">
<g id="Emblem-Copy_16_">
<path id="Combined-Shape_16_" d="M19.9257 20.3797C18.9608 20.3797 17.9785 19.5796 17.9785 18.057L18.1958 5.86701L11.9019 11.8717C11.8237 11.9405 11.728 11.9921 11.6237 12.0093C11.4238 12.0437 11.2325 11.9663 11.1108 11.8114L11.1021 11.8028C11.0152 11.691 10.9804 11.5534 10.9978 11.4243L11.389 8.29296L11.4325 8.15531L11.5194 8.01767L18.5087 0.860265L19.0042 0.369914C19.2737 0.12904 19.5954 0 19.9257 0C20.2474 0 20.569 0.12904 20.8298 0.352709L21.334 0.851662L28.3321 8.01767L28.4103 8.12951L28.4624 8.28435L28.8623 11.4071C28.8797 11.519 28.8536 11.6394 28.7928 11.734C28.6885 11.9147 28.4885 12.0179 28.2799 11.9921H28.2625C28.1408 11.9835 28.0278 11.9319 27.9409 11.8459L21.6644 5.85841L21.8817 18.0398C21.873 19.5796 20.8994 20.3797 19.9257 20.3797ZM11.4064 36.9914L1.63524 34.5827L0.95717 34.402C0.609443 34.2902 0.339953 34.0751 0.174783 33.7998C0.00961186 33.5245 -0.0425472 33.1804 0.0356916 32.8535L0.218249 32.1739L3.00007 22.5992L3.05223 22.4787L3.16524 22.3497L5.70366 20.4485C5.79059 20.3797 5.9036 20.3453 6.01661 20.3453C6.22525 20.3453 6.4165 20.4657 6.50343 20.655L6.51212 20.6808C6.56428 20.7926 6.57298 20.913 6.5469 21.0249L4.45184 29.3953L15.0228 23.1153C15.4835 22.8572 15.9442 22.7196 16.3876 22.7196C17.0917 22.7196 17.709 23.0551 18.0393 23.6143C18.5261 24.4401 18.3175 25.6789 16.9787 26.4445L6.19048 32.3546L14.6055 34.7375C14.7098 34.7633 14.7967 34.8235 14.8663 34.901C14.9967 35.0472 15.0315 35.2623 14.9532 35.4429V35.4515C14.9011 35.5806 14.7967 35.6838 14.6663 35.7354L11.7194 36.9656L11.5803 37L11.4064 36.9914ZM28.2886 36.9914L28.1495 36.957L25.2112 35.7354C25.1069 35.6924 25.0199 35.615 24.9591 35.5117C24.8548 35.3311 24.8635 35.1074 24.9852 34.9354L24.9939 34.9182C25.0634 34.8235 25.1677 34.7547 25.2807 34.7203L33.6697 32.346L22.8814 26.4359C21.5427 25.6703 21.334 24.4315 21.8122 23.6057C22.1425 23.0465 22.7597 22.711 23.4639 22.711C23.9159 22.711 24.368 22.84 24.82 23.0981L35.3996 29.3781L33.2872 20.9905C33.2611 20.8872 33.2698 20.784 33.3046 20.6808C33.3741 20.4915 33.5393 20.3625 33.7392 20.3367H33.7566C33.8957 20.3195 34.0261 20.3539 34.1391 20.4399L36.6775 22.3411L36.7731 22.4443L36.8427 22.5906L39.6332 32.1567L39.8158 32.8191C39.894 33.1718 39.8418 33.5073 39.6854 33.7912C39.5202 34.0665 39.2507 34.2816 38.9291 34.3848L38.2423 34.5655L28.4624 36.9742L28.3234 36.9828L28.2886 36.9914Z" fill="white"/>
</g>
</g>
</g>
</svg>
