<svg width="24" height="22" viewBox="0 0 24 22" fill="none" xmlns="http://www.w3.org/2000/svg">
<g id="Footer">
<path id="LinkedIn" d="M22.0807 0H2.05053C0.956496 0 0 0.722063 0 1.71347V20.1146C0 21.1117 0.956496 22 2.05053 22H22.0744C23.1747 22 24 21.106 24 20.1146V1.71347C24.0062 0.722063 23.1747 0 22.0807 0ZM7.43942 18.3381H4.00103V8.53868H7.43942V18.3381ZM5.839 7.04871H5.814C4.71371 7.04871 4.00103 6.29799 4.00103 5.35817C4.00103 4.40115 4.73247 3.66762 5.85776 3.66762C6.98305 3.66762 7.67073 4.39542 7.69573 5.35817C7.69573 6.29799 6.98305 7.04871 5.839 7.04871ZM20.0052 18.3381H16.5668V12.9799C16.5668 11.6963 16.0666 10.8195 14.8226 10.8195C13.8723 10.8195 13.3097 11.4097 13.0596 11.9828C12.9658 12.1891 12.9408 12.4699 12.9408 12.7564V18.3381H9.50245V8.53868H12.9408V9.90258C13.441 9.24928 14.2224 8.30946 16.0416 8.30946C18.2985 8.30946 20.0052 9.67335 20.0052 12.6132V18.3381Z" fill="white"/>
</g>
</svg>
