<svg width="24" height="22" viewBox="0 0 24 22" fill="none" xmlns="http://www.w3.org/2000/svg">
<g id="Footer">
<path id="Twitter" d="M24 2.60295C23.1167 3.04466 22.1689 3.34422 21.173 3.47796C22.1898 2.79081 22.9682 1.7009 23.3371 0.406172C22.3833 1.04252 21.3305 1.50458 20.2087 1.75506C19.3103 0.673605 18.0326 0 16.6153 0C13.8963 0 11.6917 2.48788 11.6917 5.55458C11.6917 5.98952 11.7352 6.41432 11.8192 6.82054C7.72801 6.58864 4.1002 4.37664 1.67216 1.01543C1.24773 1.83459 1.00628 2.78908 1.00628 3.80797C1.00628 5.73567 1.87612 7.43657 3.19589 8.43168C2.38902 8.40124 1.63016 8.15075 0.965805 7.7344V7.80379C0.965805 10.4948 2.66349 12.7406 4.91456 13.2518C4.50212 13.377 4.06722 13.4464 3.6173 13.4464C3.29938 13.4464 2.99193 13.4109 2.69047 13.3431C3.31734 15.5518 5.13503 17.1579 7.28864 17.2019C5.60444 18.6913 3.48083 19.5764 1.17428 19.5764C0.776864 19.5764 0.385412 19.5493 0 19.5003C2.1791 21.0793 4.76612 22 7.5466 22C16.6034 22 21.554 13.5344 21.554 6.19265L21.5375 5.47337C22.5048 4.69479 23.3416 3.71658 24 2.60295Z" fill="white"/>
</g>
</svg>
