<svg width="24" height="22" viewBox="0 0 24 22" fill="none" xmlns="http://www.w3.org/2000/svg">
<g id="Footer">
<path id="YouTube" d="M12.0199 0C12.0243 5.90247e-06 12.0294 1.37724e-05 12.0352 2.42657e-05L12.1058 0.000207242C13.0227 0.00319586 19.6327 0.0458904 21.3739 0.655812C22.4042 1.01354 23.221 2.08671 23.4974 3.43414C23.9749 5.7677 23.9988 10.5011 24 10.9686V11.0433C23.9988 11.5097 23.9749 16.2324 23.4974 18.5659C23.221 19.9134 22.4042 20.9865 21.3739 21.3443C19.5952 21.9673 12.7361 21.9984 12.0546 22H11.9454C11.2639 21.9984 4.4048 21.9673 2.62616 21.3443C1.59579 20.9865 0.779029 19.9134 0.502588 18.554C0.0401774 16.3051 0.0031846 11.7955 0.000225174 11.0883L3.06598e-05 11.0315C1.80943e-05 11.0265 8.04192e-06 11.0221 0 11.0181V10.9701C8.04192e-06 10.9661 1.80943e-05 10.9617 3.06598e-05 10.9568L0.000225174 10.9001C0.0031846 10.1944 0.0401774 5.69401 0.502588 3.43414C0.779029 2.08671 1.59579 1.01354 2.62616 0.655812C4.36736 0.0458904 10.9774 0.00319586 11.8942 0.000207242L11.9648 2.42657e-05C11.9706 1.37724e-05 11.9757 5.90247e-06 11.9801 0H12.0199ZM8.73299 6.9637V15.3583L16.4985 11.161L8.73299 6.9637Z" fill="white"/>
</g>
</svg>
